<svg xmlns="http://www.w3.org/2000/svg" width="355" height="392" viewBox="0 0 355 392">
  <rect width="355" height="392" fill="#f4f4f4"/>
  <rect x="16" y="16" width="323" height="360" rx="14" fill="#ffffff" stroke="#d9d9d9"/>
  <circle cx="48" cy="52" r="18" fill="#d7d7d7"/>
  <rect x="78" y="38" width="148" height="12" rx="6" fill="#444444"/>
  <rect x="78" y="58" width="96" height="9" rx="4.5" fill="#9a9a9a"/>
  <rect x="16" y="93" width="323" height="1" fill="#e8e8e8"/>
  <g fill="#f4b400">
    <path d="M34 122l4 9 10 1-7 6 2 10-9-5-9 5 2-10-7-6 10-1z"/>
    <path d="M62 122l4 9 10 1-7 6 2 10-9-5-9 5 2-10-7-6 10-1z"/>
    <path d="M90 122l4 9 10 1-7 6 2 10-9-5-9 5 2-10-7-6 10-1z"/>
    <path d="M118 122l4 9 10 1-7 6 2 10-9-5-9 5 2-10-7-6 10-1z"/>
    <path d="M146 122l4 9 10 1-7 6 2 10-9-5-9 5 2-10-7-6 10-1z"/>
  </g>
  <rect x="26" y="160" width="295" height="12" rx="6" fill="#4b4b4b"/>
  <rect x="26" y="182" width="281" height="12" rx="6" fill="#4b4b4b"/>
  <rect x="26" y="204" width="260" height="12" rx="6" fill="#4b4b4b"/>
  <rect x="26" y="226" width="210" height="12" rx="6" fill="#4b4b4b"/>
  <rect x="26" y="260" width="134" height="10" rx="5" fill="#8a8a8a"/>
  <rect x="26" y="304" width="220" height="56" rx="12" fill="#f1f1f1" stroke="#e0e0e0"/>
  <text x="36" y="336" font-family="Arial, sans-serif" font-size="12" fill="#6f6f6f">Paste 2GIS review screenshot</text>
</svg>
